<svg width="18" height="18" viewBox="0 0 18 18" fill="none" xmlns="http://www.w3.org/2000/svg">
<path d="M8.991 4.50042e-06C7.21136 0.00178415 5.47218 0.531137 3.99333 1.52115C2.51447 2.51117 1.36232 3.91739 0.682508 5.56209C0.0026989 7.20678 -0.174247 9.01609 0.174035 10.7613C0.522318 12.5066 1.38019 14.1094 2.63922 15.3671C3.89825 16.6249 5.50191 17.4812 7.2475 17.8277C8.99308 18.1743 10.8022 17.9955 12.4462 17.3141C14.0902 16.6326 15.4953 15.479 16.4839 13.9992C17.4724 12.5194 18 10.7797 18 9C18 7.81735 17.7669 6.64629 17.3141 5.55377C16.8612 4.46126 16.1975 3.4687 15.3608 2.63286C14.5241 1.79701 13.5309 1.13427 12.4379 0.682504C11.3449 0.230741 10.1737 -0.00117815 8.991 4.50042e-06ZM15.228 5.4H12.573C12.291 4.28669 11.8739 3.21205 11.331 2.2C12.9732 2.76358 14.3576 3.8995 15.231 5.4H15.228ZM9 1.836C9.75601 2.92671 10.3361 4.12936 10.719 5.4H7.281C7.66394 4.12936 8.244 2.92671 9 1.836ZM2.034 10.8C1.722 9.62028 1.722 8.37972 2.034 7.2H5.076C4.99759 7.7969 4.95551 8.39801 4.95 9C4.95551 9.602 4.99759 10.2031 5.076 10.8H2.034ZM2.772 12.6H5.427C5.70898 13.7133 6.12608 14.788 6.669 15.8C5.02509 15.2395 3.6397 14.1028 2.769 12.6H2.772ZM5.427 5.4H2.772C3.6427 3.89719 5.02809 2.76046 6.672 2.2C6.12805 3.21191 5.70995 4.28656 5.427 5.4ZM9 16.164C8.244 15.0733 7.66394 13.8707 7.281 12.6H10.719C10.3361 13.8707 9.75601 15.0733 9 16.164ZM11.106 10.8H6.894C6.8051 10.204 6.75699 9.60258 6.75 9C6.75663 8.39741 6.80474 7.79599 6.894 7.2H11.106C11.1953 7.79599 11.2434 8.39741 11.25 9C11.243 9.60258 11.1949 10.204 11.106 10.8ZM11.331 15.8C11.8739 14.788 12.291 13.7133 12.573 12.6H15.228C14.3546 14.1005 12.9702 15.2364 11.328 15.8H11.331ZM12.924 10.8C13.0024 10.2031 13.0445 9.602 13.05 9C13.0445 8.39801 13.0024 7.7969 12.924 7.2H15.966C16.278 8.37972 16.278 9.62028 15.966 10.8H12.924Z" fill="#8D99BB"/>
</svg>
