<svg width="24" height="24" viewBox="0 0 24 24" fill="none" xmlns="http://www.w3.org/2000/svg">
<path fill-rule="evenodd" clip-rule="evenodd" d="M9.76094 15.6167C9.56894 15.6167 9.37694 15.5437 9.23094 15.3967C8.49294 14.6597 8.08594 13.6797 8.08594 12.6377C8.08594 10.4777 9.84194 8.7207 11.9999 8.7207C13.0379 8.7207 14.0459 9.1397 14.7649 9.8707C15.0549 10.1667 15.0519 10.6407 14.7559 10.9307C14.4609 11.2227 13.9869 11.2177 13.6959 10.9237C13.2569 10.4767 12.6389 10.2207 11.9999 10.2207C10.6689 10.2207 9.58594 11.3047 9.58594 12.6377C9.58594 13.2787 9.83694 13.8827 10.2909 14.3367C10.5839 14.6297 10.5839 15.1037 10.2919 15.3967C10.1449 15.5437 9.95294 15.6167 9.76094 15.6167Z" fill="#8D99BB"/>
<path fill-rule="evenodd" clip-rule="evenodd" d="M12.5676 16.4903C12.2126 16.4903 11.8966 16.2363 11.8306 15.8743C11.7566 15.4673 12.0266 15.0763 12.4346 15.0023C13.4146 14.8243 14.1906 14.0463 14.3666 13.0653C14.4406 12.6583 14.8306 12.3903 15.2376 12.4603C15.6456 12.5333 15.9166 12.9233 15.8436 13.3313C15.5566 14.9243 14.2946 16.1883 12.7026 16.4783C12.6576 16.4863 12.6116 16.4903 12.5676 16.4903Z" fill="#8D99BB"/>
<mask id="mask0_6819_3702" style="mask-type:luminance" maskUnits="userSpaceOnUse" x="2" y="4" width="17" height="15">
<path fill-rule="evenodd" clip-rule="evenodd" d="M2 4.625H18.0862V18.7231H2V4.625Z" fill="white"/>
</mask>
<g mask="url(#mask0_6819_3702)">
<path fill-rule="evenodd" clip-rule="evenodd" d="M6.6545 18.7231C6.4925 18.7231 6.3295 18.6701 6.1915 18.5631C4.5005 17.2351 3.0715 15.2881 2.0615 12.9341C1.9795 12.7441 1.9795 12.5301 2.0615 12.3411C3.0825 9.97713 4.5205 8.02013 6.2205 6.68313C9.6865 3.94013 14.3005 3.93113 17.8015 6.70313C18.1265 6.96013 18.1815 7.43213 17.9245 7.75713C17.6665 8.08013 17.1965 8.13713 16.8705 7.87913C13.9045 5.53113 10.0835 5.53913 7.1495 7.86113C5.7135 8.99113 4.4805 10.6371 3.5705 12.6391C4.4715 14.6291 5.6935 16.2651 7.1185 17.3831C7.4445 17.6391 7.5005 18.1111 7.2445 18.4361C7.0965 18.6241 6.8765 18.7231 6.6545 18.7231Z" fill="#8D99BB"/>
</g>
<mask id="mask1_6819_3702" style="mask-type:luminance" maskUnits="userSpaceOnUse" x="8" y="8" width="14" height="13">
<path fill-rule="evenodd" clip-rule="evenodd" d="M8.71777 8.74023H22.0003V20.6884H8.71777V8.74023Z" fill="white"/>
</mask>
<g mask="url(#mask1_6819_3702)">
<path fill-rule="evenodd" clip-rule="evenodd" d="M12.0004 20.6884C11.0634 20.6884 10.1314 20.5364 9.23141 20.2374C8.83841 20.1064 8.62541 19.6814 8.75641 19.2884C8.88741 18.8944 9.31041 18.6854 9.70541 18.8134C10.4524 19.0624 11.2244 19.1884 12.0004 19.1884C15.4284 19.1884 18.5614 16.7464 20.4304 12.6354C19.9744 11.6364 19.4434 10.7314 18.8494 9.94144C18.6004 9.61044 18.6664 9.13944 18.9974 8.89044C19.3274 8.64144 19.7984 8.70944 20.0474 9.03944C20.7714 10.0004 21.4074 11.1114 21.9384 12.3374C22.0214 12.5274 22.0214 12.7434 21.9384 12.9324C19.8424 17.7894 16.1274 20.6884 12.0004 20.6884Z" fill="#8D99BB"/>
</g>
<mask id="mask2_6819_3702" style="mask-type:luminance" maskUnits="userSpaceOnUse" x="3" y="4" width="18" height="18">
<path fill-rule="evenodd" clip-rule="evenodd" d="M3.36328 4H20.6368V21.273H3.36328V4Z" fill="white"/>
</mask>
<g mask="url(#mask2_6819_3702)">
<path fill-rule="evenodd" clip-rule="evenodd" d="M4.11303 21.2738C3.92103 21.2738 3.72903 21.2007 3.58303 21.0537C3.29003 20.7607 3.29003 20.2867 3.58303 19.9937L19.357 4.21975C19.65 3.92675 20.124 3.92675 20.417 4.21975C20.71 4.51275 20.71 4.98775 20.417 5.28075L4.64303 21.0537C4.49703 21.2007 4.30503 21.2738 4.11303 21.2738Z" fill="#8D99BB"/>
</g>
</svg>
